<svg xmlns="http://www.w3.org/2000/svg" width="1080" height="420" viewBox="0 0 1080 420">
<rect width="100%" height="100%" fill="#ffffff"/>
<text x="540" y="36" text-anchor="middle" font-family="Arial, sans-serif" font-size="22" font-weight="700">Audit boundary: valid post-processing vs omitted route metadata</text>
<defs><marker id="arrow" markerWidth="10" markerHeight="10" refX="8" refY="3" orient="auto"><path d="M0,0 L0,6 L9,3 z" fill="#111"/></marker></defs>
<rect x="80" y="100" width="170" height="70" rx="14" fill="#f3f4f6" stroke="#111" stroke-width="1.2"/>
<text x="165.0" y="140.0" text-anchor="middle" font-family="Arial, sans-serif" font-size="15" font-weight="700">Secret capability</text>
<rect x="320" y="100" width="190" height="70" rx="14" fill="#dbeafe" stroke="#111" stroke-width="1.2"/>
<text x="415.0" y="140.0" text-anchor="middle" font-family="Arial, sans-serif" font-size="15" font-weight="700">Audited transcript</text>
<rect x="580" y="100" width="170" height="70" rx="14" fill="#dcfce7" stroke="#111" stroke-width="1.2"/>
<text x="665.0" y="140.0" text-anchor="middle" font-family="Arial, sans-serif" font-size="15" font-weight="700">Student</text>
<rect x="820" y="100" width="170" height="70" rx="14" fill="#fee2e2" stroke="#111" stroke-width="1.2"/>
<text x="905.0" y="140.0" text-anchor="middle" font-family="Arial, sans-serif" font-size="15" font-weight="700">Attack guess</text>
<line x1="250" y1="135" x2="320" y2="135" stroke="#111" stroke-width="2" marker-end="url(#arrow)"/>
<line x1="510" y1="135" x2="580" y2="135" stroke="#111" stroke-width="2" marker-end="url(#arrow)"/>
<text x="545.0" y="125.0" text-anchor="middle" font-family="Arial, sans-serif" font-size="12">train : Transcript -&gt; Student</text>
<line x1="750" y1="135" x2="820" y2="135" stroke="#111" stroke-width="2" marker-end="url(#arrow)"/>
<text x="540" y="210" text-anchor="middle" font-family="Arial, sans-serif" font-size="15" font-weight="700">Valid theorem path: every student attack is simulated at transcript level; gap = 0.</text>
<rect x="320" y="275" width="190" height="70" rx="14" fill="#fde68a" stroke="#111" stroke-width="1.2"/>
<text x="415.0" y="315.0" text-anchor="middle" font-family="Arial, sans-serif" font-size="15" font-weight="700">Route metadata</text>
<line x1="415" y1="275" x2="620" y2="170" stroke="#111" stroke-width="2" marker-end="url(#arrow)"/>
<text x="517.5" y="212.5" text-anchor="middle" font-family="Arial, sans-serif" font-size="12">omitted from audit</text>
<text x="540" y="382" text-anchor="middle" font-family="Arial, sans-serif" font-size="15" font-weight="700">Invalid hidden path: train : Transcript -> RouteMetadata -> Student; false-pass lift = +7500 successes.</text>
</svg>